<svg id="图层_1" data-name="图层 1" xmlns="http://www.w3.org/2000/svg" viewBox="0 0 331.79 81.94"><defs><style>.cls-1{fill:#049638;}</style></defs><title>logo</title><path class="cls-1" d="M346,237.61h47.7v80.33H346C309.49,317.94,309.49,237.61,346,237.61Z" transform="translate(-318.61 -237.12)"/><path class="cls-1" d="M417.38,238.46h7.31a1,1,0,0,1,.84.84v3.09q0,5.91-3.66,5.91h-1.69v3.94h9.56V239.3c0-.56.18-0.84,0.56-0.84h8.16a0.91,0.91,0,0,1,.56.84v12.94h14.34a0.5,0.5,0,0,1,.56.56V259a0.5,0.5,0,0,1-.56.56H439v15.19h6.19a0.5,0.5,0,0,0,.56-0.56v-11a0.9,0.9,0,0,1,.84-0.56h6.75a0.5,0.5,0,0,1,.56.56V277q0,5.35-6.47,5.34H439v3.09a1.59,1.59,0,0,0,1.13,1.13h13.22a0.5,0.5,0,0,1,.56.56V293a0.5,0.5,0,0,1-.56.56h-18q-5.63,0-5.62-4.5V259.55h-9.56v5.34h5.34a0.5,0.5,0,0,1,.56.56v7a0.5,0.5,0,0,1-.56.56h-5.34v16.31q0,3.38-5.06,4.5-4.22-.28-6.75-0.28h-6.75c-0.56,0-.84-0.19-0.84-0.56v-5.91a0.9,0.9,0,0,1,.84-0.56h9.28l0.28-1.69v-7q-3.94,3.38-7.31,3.38s-4.32-7.4-1.69-8.16q9-7,9-7.31v-6.19H399.66c-0.56,0-.84-0.18-0.84-0.56V252.8a0.9,0.9,0,0,1,.84-0.56h11.53V248.3h-11a0.49,0.49,0,0,1-.56-0.56Zm26.44-.84a36.32,36.32,0,0,1,9.28,9.28v1.69q-5.91,2.25-7.31,2.25,0-.28-2.53-12.94Z" transform="translate(-318.61 -237.12)"/><path class="cls-1" d="M471.9,237.12h8.72a0.5,0.5,0,0,1,.56.56v2h27.56a12.49,12.49,0,0,0,3.09-1.12q7,0.84,7,2v6.19a0.5,0.5,0,0,1-.56.56H481.18v5.06h37.13a0.5,0.5,0,0,1,.56.56v18.56q-3.37,4.5-5.34,5.63s-5.19-1.69-7-1.69c-1.45,0-4.64,1.72-6.81,1.72-7.3,0-18.06,4.19-23.52,0a11.58,11.58,0,0,0-6.68-2.19c-0.67,0-2.66.2-2.66,0.2-0.38,0-2.84,1.8-2.84,1.42V252.87a0.5,0.5,0,0,1,.56-0.56h6.75V237.69A0.5,0.5,0,0,1,471.9,237.12Zm2.81,22.78v9.28h33.47V259.9H474.72Z" transform="translate(-318.61 -237.12)"/><path class="cls-1" d="M516.35,277.9c-0.48.48-4.44,8.29-4.75,6-1.76-13.15-9.66-5.4-17.12-2.37-19.43,7.88-19-.68-19.9-1.15-2.88-1.43-4.5.46-7,2.5s-6.15,6-4.14,8.54a8.66,8.66,0,0,0,5.49,2.78l4.94-4.8c2.38-4.09,3.17,1.95,4.34,1.81,5.1-.59,16.48-0.14,23.73-3.12,2.74-1.13,6.21,12.42,11.66,7.12,1.55-1.5,2.75-3.4,6-6.17s7.27-6.2,6.27-8.2C524.63,278.19,519.73,274.52,516.35,277.9Z" transform="translate(-318.61 -237.12)"/><circle class="cls-1" cx="90" cy="36.28" r="9.9"/><circle class="cls-1" cx="151.36" cy="48.72" r="9.9"/><polygon class="cls-1" points="309.45 20.24 262.12 20.24 262.12 14.65 305.29 14.65 309.45 20.24"/><polygon class="cls-1" points="331.79 29.24 262.12 29.24 262.12 23.47 328.34 23.47 331.79 29.24"/><path class="cls-1" d="M534.77,316.94H534l-2.12-7.33a5.2,5.2,0,0,1-.15-0.82h-0.05a4.94,4.94,0,0,1-.18.8l-2.37,7.35h-0.82l-2.94-9.72h1l2.26,7.75a4.48,4.48,0,0,1,.13.82h0.08a4.23,4.23,0,0,1,.18-0.82l2.47-7.75H532l2.21,7.75a6.81,6.81,0,0,1,.13.82h0.08a3.25,3.25,0,0,1,.16-0.82l2.3-7.75h0.91Z" transform="translate(-318.61 -237.12)"/><path class="cls-1" d="M543.58,317.18a4.27,4.27,0,0,1-3.37-1.4,6.07,6.07,0,0,1,.06-7.43,4.49,4.49,0,0,1,3.42-1.37,4.17,4.17,0,0,1,3.28,1.36,5.45,5.45,0,0,1,1.21,3.76,5.38,5.38,0,0,1-1.23,3.67A4.24,4.24,0,0,1,543.58,317.18Zm0.07-9.4a3.47,3.47,0,0,0-2.74,1.16,4.7,4.7,0,0,0-1,3.22,4.52,4.52,0,0,0,1,3.06,3.4,3.4,0,0,0,2.72,1.16,3.32,3.32,0,0,0,2.71-1.14,5.79,5.79,0,0,0,0-6.35A3.31,3.31,0,0,0,543.65,307.78Z" transform="translate(-318.61 -237.12)"/><path class="cls-1" d="M557.49,316.94v-1.77h0a3.55,3.55,0,0,1-1.41,1.46,4.12,4.12,0,0,1-2.1.54,3.69,3.69,0,0,1-2.93-1.31,5.35,5.35,0,0,1-1.13-3.62,5.68,5.68,0,0,1,1.24-3.81,4,4,0,0,1,3.22-1.46,3.23,3.23,0,0,1,3.11,1.79h0v-6.22h0.88v14.39h-0.88Zm0-5.92a3.29,3.29,0,0,0-.86-2.3,3,3,0,0,0-2.31-.95A3.17,3.17,0,0,0,551.8,309a5.76,5.76,0,0,0-.1,6.33,2.85,2.85,0,0,0,2.31,1.09,3.25,3.25,0,0,0,2.57-1,3.65,3.65,0,0,0,.91-2.51V311Z" transform="translate(-318.61 -237.12)"/><path class="cls-1" d="M561.91,304.77a0.72,0.72,0,0,1-.72-0.74,0.65,0.65,0,0,1,.22-0.5,0.72,0.72,0,0,1,.5-0.2,0.78,0.78,0,0,1,.51.19,0.64,0.64,0,0,1,.22.51,0.7,0.7,0,0,1-.22.52A0.71,0.71,0,0,1,561.91,304.77Zm-0.43,12.17v-9.72h0.87v9.72h-0.87Z" transform="translate(-318.61 -237.12)"/><path class="cls-1" d="M571.28,316.94V315h0a3.83,3.83,0,0,1-1.35,1.59,3.47,3.47,0,0,1-2,.59,3,3,0,0,1-2.2-.78,2.61,2.61,0,0,1-.81-2q0-2.55,3.38-3.08l3-.45q0-3.13-2.36-3.13a4.79,4.79,0,0,0-3.12,1.29V308a4.6,4.6,0,0,1,1.46-.73A5.59,5.59,0,0,1,569,307a2.92,2.92,0,0,1,2.32.93,4,4,0,0,1,.82,2.71v6.32h-0.87Zm-2.67-4.84a4.66,4.66,0,0,0-2.15.71,2.2,2.2,0,0,0,0,3,2.21,2.21,0,0,0,1.6.56,3,3,0,0,0,2.33-1,3.86,3.86,0,0,0,.93-2.68v-0.95Z" transform="translate(-318.61 -237.12)"/><path class="cls-1" d="M581.68,316.94v-5.66q0-3.5-2.52-3.5a2.94,2.94,0,0,0-2.31,1,3.72,3.72,0,0,0-.91,2.55v5.58h-0.87v-9.72h0.87V309h0a3.52,3.52,0,0,1,3.32-2,2.9,2.9,0,0,1,2.41,1,4.71,4.71,0,0,1,.83,3v5.92h-0.87Z" transform="translate(-318.61 -237.12)"/><path class="cls-1" d="M584.95,313.14a3.74,3.74,0,0,1,.15-1.07,3.41,3.41,0,0,1,.47-1,3.84,3.84,0,0,1,.79-0.84,3.78,3.78,0,0,1,1.12-.59,4.2,4.2,0,0,1-.87-0.55,3.6,3.6,0,0,1-.66-0.72,3.21,3.21,0,0,1-.42-0.85,3.08,3.08,0,0,1-.15-1,3.47,3.47,0,0,1,.27-1.39,3.36,3.36,0,0,1,1.88-1.83,3.92,3.92,0,0,1,2.84,0,3.46,3.46,0,0,1,1.13.73,3.3,3.3,0,0,1,.74,1.1,3.55,3.55,0,0,1,.26,1.38,3.18,3.18,0,0,1-.14,1,3.31,3.31,0,0,1-.41.85,3.52,3.52,0,0,1-.65.72,4,4,0,0,1-.84.55,3.7,3.7,0,0,1,1.09.59,3.8,3.8,0,0,1,.78.84,3.62,3.62,0,0,1,.46,1,3.77,3.77,0,0,1,.15,1.07,4.6,4.6,0,0,1-.29,1.7,3.46,3.46,0,0,1-2.08,2,4.66,4.66,0,0,1-1.63.27,4.54,4.54,0,0,1-1.6-.27,3.64,3.64,0,0,1-1.26-.78,3.53,3.53,0,0,1-.83-1.26A4.56,4.56,0,0,1,584.95,313.14Zm0.9,0.1a3.5,3.5,0,0,0,.23,1.29,2.94,2.94,0,0,0,.63,1,2.72,2.72,0,0,0,1,.63,3.64,3.64,0,0,0,2.49,0,2.8,2.8,0,0,0,1-.63,2.88,2.88,0,0,0,.64-1,3.5,3.5,0,0,0,.23-1.29,3.31,3.31,0,0,0-.22-1.21,3,3,0,0,0-.62-1,3,3,0,0,0-1-.68,3.13,3.13,0,0,0-1.28-.25,3.18,3.18,0,0,0-1.22.23,3,3,0,0,0-1,.65,2.93,2.93,0,0,0-.65,1A3.37,3.37,0,0,0,585.84,313.24Zm0.47-6.64a2.67,2.67,0,0,0,1.6,2.48,2.49,2.49,0,0,0,1,.21,2.54,2.54,0,0,0,1-.21,2.6,2.6,0,0,0,.84-0.58,2.71,2.71,0,0,0,.56-0.85,2.67,2.67,0,0,0,.21-1.05,2.8,2.8,0,0,0-.2-1.07,2.69,2.69,0,0,0-.56-0.86,2.69,2.69,0,0,0-2.95-.56,2.63,2.63,0,0,0-.83.58,2.55,2.55,0,0,0-.54.86A2.9,2.9,0,0,0,586.32,306.6Z" transform="translate(-318.61 -237.12)"/><path class="cls-1" d="M596.09,317.11a0.72,0.72,0,0,1-.54-0.22,0.74,0.74,0,0,1-.22-0.54,0.73,0.73,0,0,1,.22-0.54,0.74,0.74,0,0,1,.54-0.21,0.79,0.79,0,0,1,.55.21,0.71,0.71,0,0,1,.23.54,0.73,0.73,0,0,1-.23.54A0.77,0.77,0,0,1,596.09,317.11Z" transform="translate(-318.61 -237.12)"/><path class="cls-1" d="M606.1,316.51a4.82,4.82,0,0,1-2.58.67,4.08,4.08,0,0,1-3.19-1.36,5.15,5.15,0,0,1-1.22-3.57,5.36,5.36,0,0,1,1.37-3.79A4.57,4.57,0,0,1,604,307a5.29,5.29,0,0,1,2.15.46v1a4.26,4.26,0,0,0-2.29-.64,3.49,3.49,0,0,0-2.77,1.23,4.69,4.69,0,0,0-1.06,3.18,4.54,4.54,0,0,0,1,3,3.2,3.2,0,0,0,2.57,1.15,4.25,4.25,0,0,0,2.54-.77v0.91Z" transform="translate(-318.61 -237.12)"/><path class="cls-1" d="M612.34,317.18a4.27,4.27,0,0,1-3.37-1.4,6.07,6.07,0,0,1,.06-7.43,4.49,4.49,0,0,1,3.42-1.37,4.17,4.17,0,0,1,3.28,1.36,5.45,5.45,0,0,1,1.21,3.76,5.38,5.38,0,0,1-1.23,3.67A4.24,4.24,0,0,1,612.34,317.18Zm0.07-9.4a3.47,3.47,0,0,0-2.74,1.16,4.7,4.7,0,0,0-1,3.22,4.52,4.52,0,0,0,1,3.06,3.4,3.4,0,0,0,2.72,1.16,3.32,3.32,0,0,0,2.71-1.14,5.79,5.79,0,0,0,0-6.35A3.31,3.31,0,0,0,612.41,307.78Z" transform="translate(-318.61 -237.12)"/><path class="cls-1" d="M631.54,316.94v-5.84a4.31,4.31,0,0,0-.58-2.58,2.16,2.16,0,0,0-1.81-.74,2.53,2.53,0,0,0-2,1,3.7,3.7,0,0,0-.83,2.48v5.7h-0.87V311q0-3.24-2.47-3.24a2.43,2.43,0,0,0-2,1,4,4,0,0,0-.79,2.57v5.6h-0.87v-9.72h0.87v1.62h0a3.21,3.21,0,0,1,3-1.85,2.81,2.81,0,0,1,1.82.61,3,3,0,0,1,1,1.61,3.73,3.73,0,0,1,1.3-1.64,3.17,3.17,0,0,1,1.84-.58q3.19,0,3.19,3.95v6h-0.87Z" transform="translate(-318.61 -237.12)"/><path class="cls-1" d="M403.94,311.69a6.91,6.91,0,0,0-.47-0.8,25.68,25.68,0,0,0,3.11-7.85l0.83,0.13q-0.52,2-1.22,3.91v11.85h-0.82V309A27,27,0,0,1,403.94,311.69Zm11,6.6q-3.9-.19-5.49-1.91a13.84,13.84,0,0,1-2,2.56q-0.17-.17-0.66-0.6a12.67,12.67,0,0,0,2-2.66,10.7,10.7,0,0,1-1.53-3.65l0.76-.22a11.69,11.69,0,0,0,1.17,3,15.86,15.86,0,0,0,.82-4.32h-2.57v-0.86l2.71-4.11H407.7v-0.76h3.4v0.86l-2.69,4.1h2.48v0.76a15.76,15.76,0,0,1-1.07,5.11q1.44,1.78,5.25,1.91,1.21,0.06,2.61.06l2,0a4.12,4.12,0,0,0-.31.86Q416.78,318.38,414.92,318.28Zm-3.6-3.91h3.21v-1.67h-2.82V312h2.82v-1.63H411.9v-0.71h2.63V308h-3.4v-0.73h3.4v-1.69H412v-0.71h2.48V303h0.82v1.82h3.11v2.4h1.14V308h-1.14v2.39h-3.11V312h3.4v0.71h-3.4v1.67H419v0.71h-3.64v1.69h-0.82v-1.69h-3.21v-0.71Zm6.32-8.82h-2.29v1.69h2.29v-1.69Zm-2.29,4.09h2.29V308h-2.29v1.68Z" transform="translate(-318.61 -237.12)"/><path class="cls-1" d="M423.21,311.07a19.12,19.12,0,0,1-.37,4.52,11,11,0,0,1-1.56,3.4q-0.3-.25-0.71-0.55a9,9,0,0,0,1.42-3.06,19,19,0,0,0,.35-4.33v-6.32H429q-0.13-.44-0.47-1.58l0.85-.22q0.37,1.17.53,1.8h6v0.74H423.21v5.62Zm11.73,2,0.54,0.65q-1.35.86-3.15,1.79a13,13,0,0,0,3.93,2,5.14,5.14,0,0,0-.53.81q-4.31-1.67-5.84-4.54v3a1.94,1.94,0,0,1-.39,1.42,2,2,0,0,1-1.44.46q-0.55,0-1.56,0a6,6,0,0,0-.15-0.88q0.63,0,1.46,0a1.33,1.33,0,0,0,1-.25,1.22,1.22,0,0,0,.25-0.93v-1.1q-3.69,1.25-5.52,1.91l-0.31-.86q2.63-.77,5.83-1.9v-2.32h-4.56v-0.73H429v-1.59h-5.37v-0.73H429v-1.46h-4.45v-0.73H429v-1.31h0.86v1.31h4.82v2.19h1.89v0.73h-1.89v2.32h-4.82v0.08a12.53,12.53,0,0,0,1.83,2.44Q433.64,314,434.93,313.11Zm-10.67.55,0.52-.6a25.37,25.37,0,0,1,2.4,1.51l-0.6.65A24.71,24.71,0,0,0,424.26,313.66Zm9.6-5.71h-4v1.46h4v-1.46Zm-4,3.79h4v-1.59h-4v1.59Z" transform="translate(-318.61 -237.12)"/><path class="cls-1" d="M441.26,309.43l0.64-.53h-4.25v-0.83h7.52v-2.35h-6.08V304.9h6.08v-2h0.9v2h6.08v0.81h-6.08v2.35h7.54v0.83h-4.41l0.76,0.53q-1.15,1.26-2,2.14h4.25v0.81h-6.14v2.37h7.48v0.83h-7.48v3.49h-0.9v-3.49H437.6v-0.83h7.57v-2.37H439v-0.81h4.31Q442.74,310.88,441.26,309.43Zm2.92,1.66-0.61.48h3.23q1.23-1.29,2.37-2.67H442l0.67,0.65Q443.73,310.6,444.18,311.09Z" transform="translate(-318.61 -237.12)"/><path class="cls-1" d="M454.74,307v-0.81h4.88v1a27.24,27.24,0,0,1-1.84,2.93v8.87h-0.86v-7.77a23.41,23.41,0,0,1-2.08,2.21q-0.1-.32-0.36-1a18.38,18.38,0,0,0,4.28-5.42h-4Zm1.58-3.65,0.8-.37q0.66,1.16,1.38,2.52l-0.83.42A26.74,26.74,0,0,0,456.32,303.34ZM458,311l0.61-.52q0.82,0.81,1.61,1.68l-0.66.58Q459,312,458,311Zm2-7.16H470.4v0.75H460v-0.75Zm0.52,7.35h9.37V319H469v-1H461.4v1h-0.87v-7.82ZM461.3,306h7.77v3.76H461.3V306Zm0.11,5.92v2.29h3.36v-2.29H461.4Zm0,3v2.33h3.36v-2.33H461.4Zm0.76-8.19V309h6v-2.3h-6Zm6.87,5.19h-3.4v2.29H469v-2.29Zm-3.4,3v2.33H469v-2.33h-3.4Z" transform="translate(-318.61 -237.12)"/><path class="cls-1" d="M487,309.82a18.89,18.89,0,0,1-7.36-5.69,23.22,23.22,0,0,1-7.48,5.84,8,8,0,0,0-.65-0.76,21.86,21.86,0,0,0,8-6.36l1,0.21-0.1.14a3.08,3.08,0,0,1-.22.28,18.44,18.44,0,0,0,7.44,5.53A9.11,9.11,0,0,0,487,309.82Zm-12.68-.5H484.9v0.85h-4.8v3h5.41V314H480.1v3.23H487v0.88H472.28v-0.88h6.87V314h-5.43v-0.86h5.43v-3h-4.81v-0.85Z" transform="translate(-318.61 -237.12)"/><path class="cls-1" d="M488.74,312.88L488.6,312l0.63-.17c0.71-.19,1.26-0.34,1.65-0.46v-4.18h-2.06v-0.78h2.06v-3.28h0.85v3.28h1.78v0.78h-1.78v3.93l1.68-.51a6.31,6.31,0,0,0,.07.86l-1.75.51v5.29a1.35,1.35,0,0,1-1.58,1.56l-0.53,0h-0.75a7.25,7.25,0,0,0-.17-0.88q0.64,0,1.25,0a0.73,0.73,0,0,0,.92-0.83V312.2Q490,312.47,488.74,312.88Zm9.54-9.71,0.86-.17q0.27,1,.42,1.82h4.76v0.76H494v-0.76h4.71q-0.11-.5-0.34-1.45ZM495,319h-0.85v-7.67H504v6a1.34,1.34,0,0,1-1.55,1.59l-0.58,0H501a5.58,5.58,0,0,0-.2-0.84q0.82,0,1.51.05a0.71,0.71,0,0,0,.83-0.85v-5.19H495V319Zm0.31-12.12h7.45V310h-7.45v-3.14Zm0.84,0.75v1.64h5.78v-1.64H496.1Zm0.57,5.84h4.71v3.32h-4.71v-3.32Zm0.81,0.76v1.83h3.08v-1.83h-3.08Z" transform="translate(-318.61 -237.12)"/><path class="cls-1" d="M506.23,319a5.11,5.11,0,0,0-.63-0.76,10.31,10.31,0,0,0,3.2-7l1,0.08a17.76,17.76,0,0,1-.61,2.86q1.83,3,4.41,3.27v-7.74h-7.64v-0.86h15.41v0.86h-6.86v3.09h5.82v0.84h-5.82v3.86q1.58,0,3.64,0t3.47,0a6.24,6.24,0,0,0-.27,1q-4.13,0-7.2-.11a6.25,6.25,0,0,1-5.32-3.21A10.9,10.9,0,0,1,506.23,319ZM513,303.19l1-.2q0.33,1.17.51,2h6.38v2.81h-0.9v-2H507.4v2h-0.9V305h7Q513.19,303.85,513,303.19Z" transform="translate(-318.61 -237.12)"/><path class="cls-1" d="M647.85,269.82l-67.11,1L559.9,288a1.19,1.19,0,0,1-1.19-1.19V276.55a1.19,1.19,0,0,1,1.19-1.19h10.85a1.19,1.19,0,0,0,.82-0.33l7.58-7.23a1.19,1.19,0,0,0,.37-0.86V241.83a1.19,1.19,0,0,0-1.19-1.19H550.64a1.19,1.19,0,0,0-1.19,1.19v51.74a1.19,1.19,0,0,0,1.19,1.19ZM568.2,248.63a1.19,1.19,0,0,1,1.19-1.19h0.53a1.19,1.19,0,0,1,1.19,1.19v18.84a1.19,1.19,0,0,1-1.19,1.19h-0.53a1.19,1.19,0,0,1-1.19-1.19V248.63ZM558,267.47V248.63a1.19,1.19,0,0,1,1.19-1.19h0.53a1.19,1.19,0,0,1,1.19,1.19v18.84a1.19,1.19,0,0,1-1.19,1.19h-0.53A1.19,1.19,0,0,1,558,267.47Z" transform="translate(-318.61 -237.12)"/><path class="cls-1" d="M538.64,241.15h-3.16a8.38,8.38,0,0,0-8.38,8.38V286a8.38,8.38,0,0,0,8.5,8.38l3.18,0a8.38,8.38,0,0,0,8.27-8.39l0-36.4A8.38,8.38,0,0,0,538.64,241.15Zm-0.44,44.93a1.19,1.19,0,0,1-2.37,0v-36.8a1.19,1.19,0,0,1,1.19-1.19h0a1.19,1.19,0,0,1,1.19,1.19Z" transform="translate(-318.61 -237.12)"/></svg>