<?xml version="1.0" encoding="utf-8"?>
<!-- Generator: Adobe Illustrator 19.2.0, SVG Export Plug-In . SVG Version: 6.00 Build 0)  -->
<svg version="1.1" xmlns="http://www.w3.org/2000/svg" xmlns:xlink="http://www.w3.org/1999/xlink" x="0px" y="0px"
	 viewBox="0 0 481.9 82.2" style="enable-background:new 0 0 481.9 82.2;" xml:space="preserve">
<style type="text/css">
	.st0{fill:#F39800;}
	.st1{fill:#FFFFFF;}
	.st2{font-family:'MicrosoftYaHeiLight';}
	.st3{font-size:18px;}
	.st4{font-size:17px;}
</style>
<g id="图层_2">
	<rect x="14" y="0" class="st0" width="345" height="82.2"/>
</g>
<g id="图层_1">
	<g>
		<path class="st1" d="M44.8,0.5h47.7v80.3H44.8C8.3,80.8,8.3,0.5,44.8,0.5z"/>
		<path class="st1" d="M116.2,1.3h7.3c0.6,0.2,0.8,0.5,0.8,0.8v3.1c0,3.9-1.2,5.9-3.7,5.9h-1.7V15h9.6V2.1c0-0.6,0.2-0.8,0.6-0.8
			h8.2c0.4,0.2,0.6,0.5,0.6,0.8V15h14.3c0.4,0,0.6,0.2,0.6,0.6v6.2c0,0.4-0.2,0.6-0.6,0.6h-14.3v15.2h6.2c0.4,0,0.6-0.2,0.6-0.6V26
			c0.2-0.4,0.5-0.6,0.8-0.6h6.8c0.4,0,0.6,0.2,0.6,0.6v13.8c0,3.6-2.2,5.3-6.5,5.3H138v3.1c0,0.4,0.4,0.8,1.1,1.1h13.2
			c0.4,0,0.6,0.2,0.6,0.6v5.9c0,0.4-0.2,0.6-0.6,0.6h-18c-3.8,0-5.6-1.5-5.6-4.5V22.4h-9.6v5.3h5.3c0.4,0,0.6,0.2,0.6,0.6v7
			c0,0.4-0.2,0.6-0.6,0.6h-5.3v16.3c0,2.3-1.7,3.7-5.1,4.5c-2.8-0.2-5.1-0.3-6.8-0.3h-6.8c-0.6,0-0.8-0.2-0.8-0.6v-5.9
			c0.2-0.4,0.5-0.6,0.8-0.6h9.3l0.3-1.7v-7c-2.6,2.3-5.1,3.4-7.3,3.4c0,0-4.3-7.4-1.7-8.2c6-4.7,9-7.1,9-7.3v-6.2H98.5
			c-0.6,0-0.8-0.2-0.8-0.6v-6.2c0.2-0.4,0.5-0.6,0.8-0.6H110V11H99c-0.4,0-0.6-0.2-0.6-0.6L116.2,1.3z M142.6,0.5
			c3.9,2.8,7,5.9,9.3,9.3v1.7c-3.9,1.5-6.4,2.3-7.3,2.3c0-0.2-0.8-4.5-2.5-12.9L142.6,0.5z"/>
		<path class="st1" d="M170.7,0h8.7c0.4,0,0.6,0.2,0.6,0.6v2h27.6c0.4,0,1.4-0.4,3.1-1.1c4.7,0.6,7,1.2,7,2v6.2
			c0,0.4-0.2,0.6-0.6,0.6H180v5.1h37.1c0.4,0,0.6,0.2,0.6,0.6v18.6c-2.3,3-4,4.9-5.3,5.6c0,0-5.2-1.7-7-1.7c-1.4,0-4.6,1.7-6.8,1.7
			c-7.3,0-18.1,4.2-23.5,0c-2.2-1.7-4.9-2.2-6.7-2.2c-0.7,0-2.7,0.2-2.7,0.2c-0.4,0-2.8,1.8-2.8,1.4V16c0-0.4,0.2-0.6,0.6-0.6h6.8
			V0.8C170.2,0.2,170.4,0,170.7,0z M173.5,22.8v9.3H207v-9.3H173.5z"/>
		<path class="st1" d="M215.2,40.8c-0.5,0.5-4.4,8.3-4.8,6c-1.8-13.2-9.7-5.4-17.1-2.4c-19.4,7.9-19-0.7-19.9-1.1
			c-2.9-1.4-4.5,0.5-7,2.5s-6.2,6-4.1,8.5c2,2.5,5.5,2.8,5.5,2.8l4.9-4.8c2.4-4.1,3.2,1.9,4.3,1.8c5.1-0.6,16.5-0.1,23.7-3.1
			c2.7-1.1,6.2,12.4,11.7,7.1c1.5-1.5,2.7-3.4,6-6.2s7.3-6.2,6.3-8.2C223.5,41.1,218.6,37.4,215.2,40.8z"/>
		<circle class="st1" cx="107.4" cy="36.3" r="9.9"/>
		<circle class="st1" cx="168.8" cy="48.7" r="9.9"/>
		<polygon class="st1" points="326.9,20.2 279.6,20.2 279.6,14.6 322.7,14.6 		"/>
		<polygon class="st1" points="349.2,29.2 279.6,29.2 279.6,23.5 345.8,23.5 		"/>
		<polygon class="st1" points="329.6,37.7 279.6,37.7 279.6,32 332.8,32 		"/>
		<text transform="matrix(1 0 0 1 223.8426 79.8)" class="st1 st2 st3">wodian8.com</text>
		<text transform="matrix(1 0 0 1 101.9994 79.8)" class="st1 st2 st4">健康幸福全搞定</text>
		<g>
			<path class="st1" d="M234.3,4h3.2c4.6,0,8.4,3.8,8.4,8.4v36.4c0,4.6-3.7,8.3-8.3,8.4h-3.2c-4.7,0.1-8.5-3.7-8.5-8.4V12.4
				C225.9,7.8,229.7,4,234.3,4z M235.9,10.9L235.9,10.9c-0.7,0-1.2,0.5-1.2,1.2v36.8c0,0.7,0.5,1.2,1.2,1.2l0,0
				c0.7,0,1.2-0.5,1.2-1.2V12.1C237.1,11.5,236.5,10.9,235.9,10.9z M249.5,3.5h27.7c0.7,0,1.2,0.5,1.2,1.2v25.1
				c0,0.3-0.1,0.6-0.4,0.9l-7.6,7.2c-0.2,0.2-0.5,0.3-0.8,0.3h-10.9c-0.7,0-1.2,0.5-1.2,1.2v10.3c0,0.7,0.5,1.2,1.2,1.2l20.3,0.6
				l-29.6,6.2c-0.7,0-1.2-0.5-1.2-1.2V4.8C248.3,4,248.8,3.5,249.5,3.5z M258,31.5h0.5c0.7,0,1.2-0.5,1.2-1.2V11.5
				c0-0.7-0.5-1.2-1.2-1.2H258c-0.7,0-1.2,0.5-1.2,1.2v18.8C256.8,31,257.4,31.5,258,31.5z M268.7,10.3h-0.5c-0.7,0-1.2,0.5-1.2,1.2
				v18.8c0,0.7,0.5,1.2,1.2,1.2h0.5c0.7,0,1.2-0.5,1.2-1.2V11.5C269.9,10.8,269.4,10.3,268.7,10.3z"/>
		</g>
	</g>
</g>
</svg>
